<svg xmlns="http://www.w3.org/2000/svg" viewBox="0 0 128 128" width="128" height="128">
  <defs>
    <linearGradient id="grad1" x1="0%" y1="0%" x2="100%" y2="100%">
      <stop offset="0%" style="stop-color:#2563eb;stop-opacity:1" />
      <stop offset="100%" style="stop-color:#3b82f6;stop-opacity:1" />
    </linearGradient>
  </defs>

  <!-- Background circle -->
  <circle cx="64" cy="64" r="60" fill="url(#grad1)"/>

  <!-- Document/Invoice shape -->
  <rect x="36" y="28" width="56" height="72" rx="4" fill="white" opacity="0.95"/>

  <!-- Invoice lines (header) -->
  <rect x="44" y="38" width="40" height="3" rx="1.5" fill="#2563eb" opacity="0.6"/>
  <rect x="44" y="46" width="28" height="2.5" rx="1.25" fill="#2563eb" opacity="0.5"/>

  <!-- Invoice lines (content) -->
  <rect x="44" y="56" width="40" height="2" rx="1" fill="#64748b" opacity="0.4"/>
  <rect x="44" y="62" width="36" height="2" rx="1" fill="#64748b" opacity="0.4"/>
  <rect x="44" y="68" width="32" height="2" rx="1" fill="#64748b" opacity="0.4"/>

  <rect x="44" y="76" width="40" height="2" rx="1" fill="#64748b" opacity="0.4"/>
  <rect x="44" y="82" width="30" height="2" rx="1" fill="#64748b" opacity="0.4"/>

  <!-- Total/important line -->
  <rect x="44" y="90" width="40" height="3" rx="1.5" fill="#2563eb" opacity="0.7"/>

  <!-- Checkmark/Process symbol -->
  <circle cx="84" cy="82" r="14" fill="#10b981" opacity="0.95"/>
  <path d="M 78 82 L 82 86 L 90 76" stroke="white" stroke-width="3" stroke-linecap="round" stroke-linejoin="round" fill="none"/>
</svg>